<?xml version="1.0" standalone="no"?>
<!DOCTYPE svg PUBLIC "-//W3C//DTD SVG 20010904//EN"
 "http://www.w3.org/TR/2001/REC-SVG-20010904/DTD/svg10.dtd">
<svg version="1.0" xmlns="http://www.w3.org/2000/svg"
 width="125.000000pt" height="42.000000pt" viewBox="0 0 125.000000 42.000000"
 preserveAspectRatio="xMidYMid meet">

<g transform="translate(0.000000,42.000000) scale(0.100000,-0.100000)"
fill="#000000" stroke="none">
<path d="M130 372 c-101 -50 -118 -107 -65 -212 14 -27 21 -56 18 -71 -13 -68
86 -81 180 -25 l57 34 12 -26 c24 -49 95 -67 150 -38 23 12 34 12 75 -1 49
-15 138 -12 172 7 12 6 32 4 62 -7 85 -29 282 7 340 63 29 28 41 86 20 98 -16
10 1 50 41 93 42 47 46 59 21 67 -61 18 -218 37 -340 42 -126 5 -146 3 -186
-14 -41 -18 -48 -19 -98 -5 -55 14 -181 12 -275 -6 -34 -7 -43 -5 -53 11 -16
26 -65 22 -131 -10z m80 -92 c-8 -47 -9 -75 -2 -82 14 -14 52 39 52 74 0 24 6
32 35 44 19 7 59 14 89 14 30 0 58 5 62 11 8 13 105 5 135 -12 19 -9 18 -11
-8 -47 l-28 -37 30 19 c93 60 154 88 203 93 29 3 52 2 52 -4 0 -5 28 -7 65 -5
61 4 255 -23 255 -35 0 -3 -9 -14 -21 -24 -23 -19 -80 -30 -144 -26 -30 1 -40
-2 -40 -13 0 -16 14 -17 96 -5 39 6 47 4 53 -11 12 -32 -18 -47 -103 -53 -82
-6 -98 -12 -86 -30 9 -15 58 -13 130 4 62 15 80 10 69 -19 -21 -54 -314 -91
-314 -40 0 18 -24 18 -58 0 -70 -36 -186 -27 -217 17 -8 12 -16 19 -18 16 -2
-2 -11 -16 -20 -31 -19 -31 -60 -38 -91 -15 -18 13 -17 16 5 85 12 39 20 75
16 78 -4 4 -35 -23 -69 -59 -68 -70 -129 -107 -178 -107 -26 0 -30 3 -25 19 3
10 -3 34 -14 52 -10 19 -24 51 -31 72 -10 32 -9 42 5 63 15 23 114 79 123 69
2 -2 -1 -36 -8 -75z"/>
<path d="M820 294 c0 -15 26 -19 34 -5 3 5 -3 11 -14 14 -13 3 -20 0 -20 -9z"/>
<path d="M675 242 c-27 -22 -55 -63 -55 -79 0 -7 9 -17 19 -23 15 -8 36 -3 90
18 39 16 74 32 77 35 11 11 -7 28 -19 19 -7 -5 -32 -12 -56 -15 l-43 -5 5 34
c3 19 5 34 4 34 -1 -1 -11 -8 -22 -18z"/>
</g>
</svg>
